<svg xmlns="http://www.w3.org/2000/svg" width="20" height="20" viewBox="0 0 20 20" fill="none">
<path d="M6.66667 10.118V1.66797H5V10.118C3.56667 10.493 2.5 11.7846 2.5 13.3346C2.5 14.8846 3.56667 16.1763 5 16.5513V18.3346H6.66667V16.5513C8.1 16.1763 9.16667 14.8846 9.16667 13.3346C9.16667 11.7846 8.1 10.493 6.66667 10.118ZM5.83333 11.668C6.75 11.668 7.5 12.418 7.5 13.3346C7.5 14.2513 6.75 15.0013 5.83333 15.0013C4.91667 15.0013 4.16667 14.2513 4.16667 13.3346C4.16667 12.418 4.91667 11.668 5.83333 11.668ZM15 1.66797H13.3333V3.4513C11.9 3.8263 10.8333 5.11797 10.8333 6.66797C10.8333 8.21797 11.9 9.50963 13.3333 9.88463V18.3346H15V9.88463C16.4333 9.50963 17.5 8.21797 17.5 6.66797C17.5 5.11797 16.4333 3.8263 15 3.4513V1.66797ZM14.1667 5.0013C15.0833 5.0013 15.8333 5.7513 15.8333 6.66797C15.8333 7.58464 15.0833 8.33464 14.1667 8.33464C13.25 8.33464 12.5 7.58464 12.5 6.66797C12.5 5.7513 13.25 5.0013 14.1667 5.0013Z" fill="white"/>
</svg>