<svg xmlns="http://www.w3.org/2000/svg" width="20" height="20" viewBox="0 0 20 20" fill="none">
<path d="M16.2501 9.64998C16.154 9.6431 16.0576 9.65611 15.9668 9.6882C15.876 9.72029 15.7928 9.77076 15.7224 9.83646C15.652 9.90215 15.596 9.98167 15.5577 10.07C15.5194 10.1584 15.4998 10.2537 15.5001 10.35V17.5H12.1001V14.7C12.1005 14.5094 12.0284 14.3259 11.8983 14.1866C11.7683 14.0473 11.5902 13.9627 11.4001 13.95H8.65005C8.45114 13.95 8.26037 14.029 8.11972 14.1697C7.97907 14.3103 7.90005 14.5011 7.90005 14.7V17.5H4.50005V10.6C4.48735 10.4099 4.40276 10.2317 4.26346 10.1017C4.12416 9.97168 3.94059 9.89956 3.75005 9.89998C3.5644 9.89998 3.38635 9.97373 3.25507 10.105C3.1238 10.2363 3.05005 10.4143 3.05005 10.6V18.25C3.05005 18.4356 3.1238 18.6137 3.25507 18.745C3.38635 18.8762 3.5644 18.95 3.75005 18.95H8.65005C8.83184 18.9382 9.00313 18.8607 9.13195 18.7319C9.26076 18.6031 9.33829 18.4318 9.35005 18.25V15.45H10.6501V18.25C10.6628 18.4401 10.7473 18.6183 10.8866 18.7483C11.0259 18.8783 11.2095 18.9504 11.4001 18.95H16.2501C16.4357 18.95 16.6138 18.8762 16.745 18.745C16.8763 18.6137 16.9501 18.4356 16.9501 18.25V10.35C16.9501 10.1643 16.8763 9.98628 16.745 9.85501C16.6138 9.72373 16.4357 9.64998 16.2501 9.64998Z" fill="white"/>
<path d="M19.3001 10.1L15.1001 5.90001V3.10001C15.1001 2.90109 15.0211 2.71033 14.8804 2.56968C14.7398 2.42902 14.549 2.35001 14.3501 2.35001C14.16 2.36271 13.9818 2.4473 13.8518 2.5866C13.7218 2.7259 13.6497 2.90946 13.6501 3.10001V4.45001L10.5001 1.30001C10.4391 1.22658 10.3627 1.16748 10.2763 1.12692C10.1898 1.08636 10.0956 1.06534 10.0001 1.06534C9.90463 1.06534 9.81034 1.08636 9.72393 1.12692C9.63751 1.16748 9.56109 1.22658 9.50009 1.30001L0.700092 10.05C0.633573 10.1152 0.580727 10.193 0.54465 10.2788C0.508573 10.3647 0.48999 10.4569 0.48999 10.55C0.48999 10.6431 0.508573 10.7353 0.54465 10.8212C0.580727 10.907 0.633573 10.9848 0.700092 11.05C0.761788 11.1238 0.838027 11.1841 0.924053 11.2271C1.01008 11.2701 1.10405 11.2949 1.20009 11.3C1.40905 11.2918 1.60648 11.202 1.75009 11.05L10.0001 2.80001L18.2501 11.15C18.3924 11.2661 18.5669 11.3359 18.7501 11.35C18.9358 11.3475 19.1139 11.2763 19.2501 11.15H19.3001C19.4177 11.0003 19.4816 10.8154 19.4816 10.625C19.4816 10.4346 19.4177 10.2497 19.3001 10.1Z" fill="white"/>
</svg>