<svg xmlns="http://www.w3.org/2000/svg" width="20" height="20" viewBox="0 0 20 20" fill="none">
<path d="M10.5 4C9.76513 4 9.06036 4.29193 8.54073 4.81156C8.02109 5.33119 7.72917 6.03596 7.72917 6.77083C7.72917 7.5057 8.02109 8.21048 8.54073 8.73011C9.06036 9.24974 9.76513 9.54167 10.5 9.54167C11.2349 9.54167 11.9396 9.24974 12.4593 8.73011C12.9789 8.21048 13.2708 7.5057 13.2708 6.77083C13.2708 6.03596 12.9789 5.33119 12.4593 4.81156C11.9396 4.29193 11.2349 4 10.5 4ZM10.5 5.58333C10.8149 5.58333 11.117 5.70844 11.3397 5.93114C11.5624 6.15384 11.6875 6.45589 11.6875 6.77083C11.6875 7.08578 11.5624 7.38782 11.3397 7.61052C11.117 7.83322 10.8149 7.95833 10.5 7.95833C10.1851 7.95833 9.88301 7.83322 9.66031 7.61052C9.43761 7.38782 9.3125 7.08578 9.3125 6.77083C9.3125 6.45589 9.43761 6.15384 9.66031 5.93114C9.88301 5.70844 10.1851 5.58333 10.5 5.58333ZM5.35417 6.375C4.82926 6.375 4.32585 6.58352 3.95468 6.95468C3.58352 7.32585 3.375 7.82926 3.375 8.35417C3.375 9.09833 3.79458 9.73958 4.39625 10.08C4.68125 10.2383 5.00583 10.3333 5.35417 10.3333C5.7025 10.3333 6.02708 10.2383 6.31208 10.08C6.605 9.91375 6.85042 9.67625 7.0325 9.39125C6.45458 8.63917 6.14583 7.72083 6.14583 6.77083C6.14583 6.69958 6.14583 6.62042 6.14583 6.54917C5.90833 6.43833 5.63917 6.375 5.35417 6.375ZM15.6458 6.375C15.3608 6.375 15.0917 6.43833 14.8542 6.54917C14.8542 6.62042 14.8542 6.69958 14.8542 6.77083C14.8542 7.72083 14.5454 8.63917 13.9675 9.39125C14.0625 9.54167 14.1654 9.66042 14.2842 9.77917C14.4108 9.89792 14.5375 10.0008 14.6879 10.08C14.9729 10.2383 15.2975 10.3333 15.6458 10.3333C15.9942 10.3333 16.3187 10.2383 16.6037 10.08C17.2054 9.73958 17.625 9.09833 17.625 8.35417C17.625 7.82926 17.4165 7.32585 17.0453 6.95468C16.6742 6.58352 16.1707 6.375 15.6458 6.375ZM10.5 11.125C8.6475 11.125 4.95833 12.0512 4.95833 13.8958V15.0833H16.0417V13.8958C16.0417 12.0512 12.3525 11.125 10.5 11.125ZM4.72875 11.5604C3.20083 11.7425 1 12.5183 1 13.8958V15.0833H3.375V13.5554C3.375 12.7558 3.92125 12.0908 4.72875 11.5604ZM16.2713 11.5604C17.0788 12.0908 17.625 12.7558 17.625 13.5554V15.0833H20V13.8958C20 12.5183 17.7992 11.7425 16.2713 11.5604ZM10.5 12.7083C11.7113 12.7083 13.065 13.1042 13.8488 13.5H7.15125C7.935 13.1042 9.28875 12.7083 10.5 12.7083Z" fill="white"/>
</svg>