<svg xmlns="http://www.w3.org/2000/svg" width="20" height="20" viewBox="0 0 20 20" fill="none">
<path d="M18.7967 17.379C15.7817 15.03 12.2365 16.406 8.74205 17.3172L7.16751 11.4405C7.47576 11.4439 7.78763 11.5208 8.07753 11.6781C8.33012 11.8245 8.6478 11.7357 8.79362 11.4946C9.28873 10.6759 10.3524 10.2575 11.4137 10.8004C11.8196 11.008 12.2792 10.6355 12.1632 10.1966C11.4001 7.30727 8.56476 5.56208 5.72357 6.05114L5.4734 5.11735C5.39806 4.83607 5.10897 4.66901 4.82758 4.74445C4.54626 4.81983 4.37933 5.10899 4.45471 5.39034L4.70488 6.32406C1.98762 7.32562 0.417542 10.2646 1.20198 13.1398C1.32324 13.5841 1.92212 13.6716 2.16224 13.2734C2.67918 12.4162 3.78558 12.0449 4.77917 12.575C5.02885 12.7075 5.33502 12.6201 5.47853 12.3829C5.65044 12.0986 5.88283 11.8738 6.14917 11.7149L7.71735 17.5678C5.70128 18.0211 3.67533 18.1993 1.74775 17.3157C1.48306 17.1943 1.17003 17.3106 1.04867 17.5753C0.927308 17.8401 1.04353 18.1531 1.3083 18.2744C7.3512 21.0445 13.6954 14.7414 18.1486 18.2111C18.3783 18.39 18.7096 18.3489 18.8886 18.1192C19.0676 17.8894 19.0265 17.558 18.7967 17.379ZM10.7769 9.51333C10.0203 9.43275 9.25821 9.64421 8.65068 10.1043C8.30379 8.92583 7.65277 7.85814 6.72415 7.02377C8.40121 7.03871 9.98683 7.9873 10.7769 9.51333ZM2.05951 11.8513C1.98175 10.1721 2.84719 8.535 4.32924 7.664C3.94565 8.83921 3.90845 10.0889 4.20021 11.2959C3.4421 11.201 2.67496 11.4004 2.05951 11.8513ZM5.23194 11.0748C4.93178 9.85933 5.01763 8.59389 5.54853 7.4299C6.58982 8.17194 7.29762 9.22216 7.64616 10.4272C6.78648 10.2809 5.90308 10.5178 5.23194 11.0748Z" fill="white"/>
<path d="M11.0297 5.77966H11.5905C11.8817 5.77966 12.1178 5.54355 12.1178 5.25232C12.1178 4.96108 11.8817 4.72498 11.5905 4.72498H11.0297C10.7385 4.72498 10.5024 4.96108 10.5024 5.25232C10.5024 5.54355 10.7385 5.77966 11.0297 5.77966Z" fill="white"/>
<path d="M14.748 7.02434C15.725 7.02434 16.5199 6.22938 16.5199 5.25232C16.5199 4.27522 15.725 3.48027 14.748 3.48027C13.771 3.48027 12.9761 4.27522 12.9761 5.25232C12.9761 6.22938 13.771 7.02434 14.748 7.02434ZM14.748 4.53496C15.1435 4.53496 15.4652 4.85674 15.4652 5.25229C15.4652 5.64779 15.1435 5.96961 14.748 5.96961C14.3525 5.96961 14.0307 5.64783 14.0307 5.25229C14.0307 4.85674 14.3525 4.53496 14.748 4.53496Z" fill="white"/>
<path d="M14.748 2.6155C15.0392 2.6155 15.2753 2.37939 15.2753 2.08816V1.52734C15.2753 1.23611 15.0392 1 14.748 1C14.4568 1 14.2207 1.23611 14.2207 1.52734V2.08812C14.2207 2.37939 14.4568 2.6155 14.748 2.6155Z" fill="white"/>
<path d="M12.1379 3.38778C12.3437 3.59372 12.6777 3.59376 12.8836 3.38778C13.0896 3.18183 13.0896 2.84795 12.8836 2.64197L12.4871 2.24544C12.2812 2.03946 11.9473 2.03946 11.7414 2.24544C11.5354 2.45139 11.5354 2.78527 11.7414 2.99125L12.1379 3.38778Z" fill="white"/>
<path d="M12.1379 7.1168L11.7414 7.51333C11.5354 7.71927 11.5354 8.05315 11.7414 8.25913C11.9473 8.46508 12.2812 8.46511 12.4871 8.25913L12.8836 7.8626C13.0896 7.65666 13.0896 7.32278 12.8836 7.1168C12.6777 6.91082 12.3438 6.91082 12.1379 7.1168Z" fill="white"/>
<path d="M14.2207 8.41646V8.9772C14.2207 9.26843 14.4568 9.50454 14.748 9.50454C15.0392 9.50454 15.2753 9.26843 15.2753 8.9772V8.41646C15.2753 8.12522 15.0392 7.88911 14.748 7.88911C14.4568 7.88911 14.2207 8.12522 14.2207 8.41646Z" fill="white"/>
<path d="M16.6122 7.1168C16.4063 7.32274 16.4063 7.65662 16.6122 7.8626L17.0087 8.25913C17.2146 8.46508 17.5485 8.46511 17.7545 8.25913C17.9604 8.05319 17.9604 7.71931 17.7545 7.51333L17.358 7.1168C17.1521 6.91082 16.8181 6.91082 16.6122 7.1168Z" fill="white"/>
<path d="M17.3845 5.25229C17.3845 5.54352 17.6206 5.77963 17.9118 5.77963H18.4726C18.7638 5.77963 18.9999 5.54352 18.9999 5.25229C18.9999 4.96105 18.7638 4.72495 18.4726 4.72495H17.9118C17.6206 4.72495 17.3845 4.96105 17.3845 5.25229Z" fill="white"/>
<path d="M17.358 3.38778L17.7545 2.99125C17.9604 2.7853 17.9604 2.45142 17.7545 2.24544C17.5485 2.03946 17.2146 2.03946 17.0087 2.24544L16.6122 2.64197C16.4063 2.84792 16.4063 3.1818 16.6122 3.38778C16.8181 3.59372 17.1521 3.59376 17.358 3.38778Z" fill="white"/>
</svg>