<svg xmlns="http://www.w3.org/2000/svg" width="20" height="20" viewBox="0 0 20 20" fill="none">
<g clip-path="url(#clip0_20311_20171)">
<path fill-rule="evenodd" clip-rule="evenodd" d="M9.6114 1.54432H5.1845V0.91191C5.1845 0.737364 5.04284 0.595703 4.8683 0.595703C4.69375 0.595703 4.55209 0.737364 4.55209 0.91191V1.54432H2.49674C1.64299 1.54432 0.91571 2.36488 0.91571 3.41279V17.3834C0.91571 18.431 1.64299 19.2519 2.49674 19.2519H17.6747C18.5284 19.2519 19.2557 18.431 19.2557 17.3834V3.41279C19.2557 2.36488 18.5284 1.54432 17.6747 1.54432H15.2933L15.2734 0.902108C15.268 0.727561 15.1219 0.590328 14.9474 0.596019C14.7732 0.601395 14.6359 0.747482 14.6413 0.921712L14.6606 1.54432H10.2438V0.91191C10.2438 0.737364 10.1022 0.595703 9.92761 0.595703C9.75306 0.595703 9.6114 0.737364 9.6114 0.91191V1.54432ZM18.6233 5.33881V17.3834C18.6233 18.0503 18.2182 18.6195 17.6747 18.6195H2.49674C1.95319 18.6195 1.54812 18.0503 1.54812 17.3834V5.33881H18.6233ZM4.55209 2.17674H2.49674C1.95319 2.17674 1.54812 2.74559 1.54812 3.41279V4.70639H18.6233V3.41279C18.6233 2.74559 18.2182 2.17674 17.6747 2.17674H15.3129L15.3325 2.79903C15.3379 2.97358 15.2007 3.11935 15.0264 3.12504C14.8519 3.13042 14.7058 2.99318 14.7004 2.81864L14.6805 2.17674H10.2438V2.80915C10.2438 2.9837 10.1022 3.12536 9.92761 3.12536C9.75306 3.12536 9.6114 2.9837 9.6114 2.80915V2.17674H5.1845V2.80915C5.1845 2.9837 5.04284 3.12536 4.8683 3.12536C4.69375 3.12536 4.55209 2.9837 4.55209 2.80915V2.17674Z" fill="black" stroke="#ffffff" stroke-width="0.85958"/>
<g clip-path="url(#clip1_20311_20171)">
<path d="M13.5612 9.50067C13.8134 9.50067 14.0177 9.58761 14.1786 9.75716C14.3438 9.9354 14.4307 10.131 14.4307 10.3701V15.1522C14.4307 15.3914 14.3438 15.587 14.1786 15.7652C14.0177 15.9348 13.8134 16.0217 13.5612 16.0217H6.60544C6.35329 16.0217 6.14896 15.9348 5.98811 15.7652C5.82291 15.587 5.73596 15.3914 5.73596 15.1522V10.3701C5.73596 10.131 5.82291 9.9354 5.98811 9.75716C6.14896 9.58761 6.35329 9.50067 6.60544 9.50067H8.34438V8.63119C8.34438 8.37905 8.43133 8.17472 8.59653 8.01387C8.75738 7.84867 8.96171 7.76172 9.21386 7.76172H10.9528C11.205 7.76172 11.4093 7.84867 11.5701 8.01387C11.7353 8.17472 11.8223 8.37905 11.8223 8.63119V9.50067H13.5612ZM6.60544 10.3701V15.1522H13.5612V10.3701H6.60544ZM10.9528 9.50067V8.63119H9.21386V9.50067H10.9528Z" fill="black" stroke="#ffffff"/>
</g>
</g>
<defs>
<clipPath id="clip0_20311_20171">
<rect width="20" height="20" fill="#ffffff"/>
</clipPath>
<clipPath id="clip1_20311_20171">
<rect width="9.16667" height="9.16667" fill="white" transform="translate(5.5 7.5)"/>
</clipPath>
</defs>
</svg>