<svg width="928" height="134" viewBox="0 0 928 134" fill="none" xmlns="http://www.w3.org/2000/svg">
<path d="M45.0809 27.0412L33.974 33.563L33.9357 33.5249L33.7825 33.4486L22.9054 27.003L22.7522 26.8886L11.9134 20.4049L11.6836 20.2905V46.7975L0.844815 53.2431L0.65332 53.1286V40.2375L0.844815 40.123L0.65332 39.9705V27.1174L0.883116 27.003L0.65332 26.8505V13.9974L0.883116 13.8449L0.65332 13.7305V0.877412L0.883116 0.724854L11.6836 7.17044V7.43742L11.9134 7.28486L22.7522 13.7305V13.9593L22.9437 13.8449L33.7825 20.3286V20.5193L33.9357 20.4049L44.8128 26.8886V27.0412L44.966 26.9649L45.0809 27.0412Z" fill="white"/>
<path d="M0 54.4633V0.533954L0.880889 0L46.3042 27.041L33.9718 34.2875L33.4356 33.9824L12.3325 21.3963V47.1405L0 54.4633ZM1.26389 40.6187V52.0605L11.0686 46.2252V19.2224L12.2176 19.8707L33.9718 32.8382L43.8531 27.041L33.9718 21.1293L33.1675 21.6251V20.8242L22.9415 14.7219L22.0989 15.2177V14.2261L11.9112 8.00931L11.0686 8.54327V7.5135L1.26389 1.75442V13.1963L2.10648 13.6921L1.26389 14.1879V26.3545L2.06818 26.8503L1.26389 27.3079V39.4745L2.10648 40.0084L1.26389 40.6187Z" fill="white"/>
<path d="M78.0183 72.9225L89.0103 79.4443V79.4825L77.98 86.0425L77.9417 86.0044V86.0425L66.9497 92.6025L66.9114 92.5644V92.6406L55.9194 99.1625L55.8811 99.1244V99.2006L44.8891 105.723L44.8125 105.684V92.6406L44.8891 92.6025L55.8811 86.0806L55.9194 86.0425L55.8811 86.0044V72.9606L55.9577 72.9225L55.8811 72.8462V59.8406L55.9577 59.8025L55.8811 59.7262V46.7206L55.996 46.6443L55.8811 46.6062V33.448L55.996 33.5243L66.9114 40.0462L67.0263 40.0843V40.1987L66.9114 79.5206L66.988 79.4825L77.9417 72.9225H78.0183Z" fill="#EE6725"/>
<path d="M44.1992 106.867V92.2978L44.5822 92.069L55.2295 85.6615V32.2661L56.3402 32.9526L67.6003 39.894V40.3517V78.4913L77.788 72.4271H78.0944L90.2737 79.6355L89.3928 80.2457L77.9029 86.9964L44.1992 106.867ZM45.4631 93.0225V104.464L55.2295 98.6671V97.9043L55.9189 98.2476L66.2598 92.069V91.3062L66.9492 91.6876L77.3284 85.6615V84.9369L77.9795 85.2801L87.7842 79.4066L78.0178 73.6094L67.2173 80.055L66.2598 80.589V40.428L56.4934 34.5545V46.2252L57.2211 46.6447L56.4934 47.0643V59.3834L57.1445 59.8029L56.4934 60.1843V72.5034L57.1828 72.9229L56.4934 73.3043V85.6615L57.1445 86.0811L56.187 86.6532L45.4631 93.0225Z" fill="#EE6725"/>
<path d="M111.069 66.3246L100.038 72.8846L89.0464 66.3246H89.0081L78.0161 59.7646L77.9395 59.7264L77.6714 59.5739V46.4539L77.9395 46.6064V46.7208L78.0161 46.6446L89.0081 53.1664V53.2427L89.0464 53.2046L100.038 59.7646H100.077L111.069 66.3246Z" fill="white"/>
<path d="M100.003 73.6477L99.6966 73.4189L77.0615 59.9175V45.3481L78.5935 46.2635L112.297 66.3249L100.003 73.6477ZM78.2871 59.231L100.003 72.1603L109.731 66.3249L100.003 60.5277L99.3136 61.1379V60.1082L89.0493 53.9296L88.3599 54.3872V53.5482L78.2871 47.5221V59.231Z" fill="white"/>
<path d="M11.6836 86.3865V125.518L0.768214 132.001L0.65332 131.925V118.958L0.768214 118.881L0.65332 118.805V105.838L0.768214 105.761L0.65332 105.647V92.7176L0.806515 92.6032L11.6836 86.3865Z" fill="white"/>
<path d="M0 133.184V92.3742L0.459591 92.1072L12.3325 85.3184V125.861L0 133.184ZM1.26389 119.301V130.971L11.0686 125.136V87.4542L1.26389 93.0607V105.304L1.99158 105.761L1.26389 106.181V118.424L2.02987 118.881L1.26389 119.301Z" fill="white"/>
<path d="M44.8128 40.1609V53.319L33.8974 59.8028L33.7825 59.7265V112.359L22.8288 118.881L22.7522 118.805V105.799L22.8288 105.761L22.7522 105.685V92.6791L22.8671 92.6028L22.7522 92.5265V79.5591L22.8671 79.4828L22.7522 79.4065V66.4391L22.8671 66.3628L22.7522 66.2865V66.4391L0.65332 79.5972V66.4772L0.844815 66.3628L11.6836 59.9172L11.8751 59.8028L22.7522 53.319L22.9054 53.2428L33.7825 46.759L33.9357 46.6828L44.8128 40.1609Z" fill="#EE6725"/>
<path d="M22.0989 119.987V67.5449L0 80.703V66.1337L0.497892 65.8286L45.4616 39.1309V53.7002L34.3931 60.2602V112.702L22.0989 119.987ZM23.3628 106.142V117.584L33.1292 111.977V58.5821L33.8569 59.0016L44.1595 52.8611V41.2667L1.22559 66.8202V78.4909L22.0606 66.0956V65.1802L24.0522 66.3625L23.3245 66.7821V79.063L24.0522 79.4825L23.3245 79.9402V92.2212L24.0139 92.6407L23.3245 93.0602V105.341L24.0522 105.799L23.3628 106.142Z" fill="#EE6725"/>
<path d="M157.91 43.2502V52.7851H175.643V98.8578H186.328V52.7851H204.023V43.2502H157.91Z" fill="white"/>
<path d="M228.535 88.5217V75.9737H258.753V66.1719H228.535H218.079V98.8575H259.864V88.5217H228.535Z" fill="white"/>
<path d="M259.864 43.2502H218.079V53.3954H259.864V43.2502Z" fill="#EE6725"/>
<path d="M318.002 84.6317C314.213 88.2077 309.205 90.2241 303.985 90.2764C301.442 90.4604 298.89 90.1011 296.498 89.2225C294.106 88.3439 291.931 86.9664 290.117 85.1822C288.304 83.3981 286.895 81.2485 285.983 78.8776C285.072 76.5068 284.681 73.9693 284.835 71.4354C284.675 68.8793 285.059 66.3184 285.962 63.9204C286.865 61.5223 288.266 59.341 290.074 57.5193C291.881 55.6976 294.055 54.2765 296.452 53.349C298.849 52.4214 301.416 52.0084 303.985 52.1368C308.978 52.0662 313.802 53.9411 317.428 57.3619L324.475 50.6112C321.791 47.9211 318.598 45.7876 315.081 44.3343C311.564 42.881 307.793 42.1366 303.985 42.1442C300.059 41.9311 296.132 42.5417 292.458 43.9362C288.784 45.3308 285.445 47.4783 282.657 50.2397C279.87 53.0011 277.696 56.3147 276.277 59.966C274.857 63.6173 274.224 67.5248 274.417 71.4354C274.417 85.8903 283.265 100.116 304.023 100.116C307.929 100.213 311.815 99.5304 315.452 98.1091C319.09 96.6878 322.405 94.5563 325.203 91.8401L318.002 84.6317Z" fill="white"/>
<path d="M377.1 43.3267V66.5918H349.639V43.3267H339.145V98.896H349.639V76.4318H377.1V98.896H387.556V43.3267H377.1Z" fill="white"/>
<path d="M442.094 43.1743V77.6906L414.748 43.365H406.207V98.8581H416.739V61.3669L446.077 98.8963H452.626V43.1743H442.094Z" fill="white"/>
<path d="M470.321 43.2502V98.8578H480.777V43.2502H470.321Z" fill="white"/>
<path d="M497.935 43.2502V52.7851H515.706V98.8578H526.238V52.7851H543.932V43.2502H497.935Z" fill="white"/>
<path d="M596.134 43.3267V66.5918H568.674V43.3267H558.141V98.896H568.674V76.4318H596.134V98.896H606.59V43.3267H596.134Z" fill="white"/>
<path d="M663.12 43.3267V75.1732C663.12 84.7081 658.179 90.4291 649.485 90.4291C640.791 90.4291 635.046 85.0895 635.046 75.1732V43.3267H624.59V75.1732C624.59 91.9165 636.08 100.04 649.409 100.04C663.426 100.04 673.576 91.6114 673.576 75.1732V43.3267H663.12Z" fill="white"/>
<path d="M728.499 43.1743V77.6906L701.153 43.365H692.612V98.8581H703.145V61.3669L732.52 98.8963H739.031V43.1743H728.499Z" fill="white"/>
<path d="M777.904 43.2502H755.958V98.8578H777.904C797.437 98.8578 806.016 84.6317 805.786 70.5582C805.557 56.4847 797.016 43.2502 777.904 43.2502ZM777.904 88.7508H766.414V53.1665H777.904C780.211 53.0526 782.517 53.42 784.673 54.245C786.83 55.07 788.789 56.3345 790.426 57.9575C792.063 59.5805 793.341 61.5261 794.179 63.6697C795.017 65.8133 795.396 68.1077 795.292 70.4056C795.599 79.521 790.543 88.7508 777.904 88.7508Z" fill="white"/>
<path d="M862.356 43.2502H820.571V53.3954H862.356V43.2502Z" fill="#EE6725"/>
<path d="M830.989 88.5217V75.9737H861.245V66.1719H830.989H820.571V98.8575H862.356V88.5217H830.989Z" fill="white"/>
<path d="M911.072 79.1396C915.207 78.5431 918.963 76.4107 921.584 73.1705C924.206 69.9303 925.499 65.8223 925.204 61.6717C925.204 52.0605 918.272 43.3265 905.097 43.2502H878.517V98.934H889.049V80.2456H899.199L915.476 98.8578H928V98.1331L911.072 79.1396ZM889.049 70.787V53.014H905.097C906.338 52.8993 907.59 53.0439 908.772 53.4383C909.954 53.8328 911.041 54.4685 911.962 55.3048C912.884 56.1412 913.62 57.1598 914.123 58.2955C914.627 59.4312 914.887 60.659 914.887 61.9005C914.887 63.142 914.627 64.3698 914.123 65.5055C913.62 66.6412 912.884 67.6598 911.962 68.4962C911.041 69.3325 909.954 69.9682 908.772 70.3627C907.59 70.7572 906.338 70.9017 905.097 70.787H889.049Z" fill="white"/>
</svg>
